# xmcd
#
# Track frame offsets:
#       150
#       27795
#       49760
#       81621
#       103192
#       125439
#       152900
#       174262
#       192477
#       211299
#       236928
#
# Disc length: 3453 seconds
#
# Revision: 1
# Processed by: cddbd v1.5.2PL0 Copyright (c) Steve Scherf et al.
# Submitted via: FreeDbEdit v0.1
#
DISCID=9a0d7b0b
DTITLE=Sojiro - The Quiet Earth
DYEAR=2001
DGENRE=New Age
TTITLE0=The Quiet Earth
TTITLE1=Moonlit Forest I
TTITLE2=On Toward Our Dreams
TTITLE3=Happenings in the Forest
TTITLE4=Virgin Forest
TTITLE5=Heavenly Sky
TTITLE6=Echoes in the Wind
TTITLE7=Bright Existence
TTITLE8=Moonlit Forest II
TTITLE9=Edge Of the Earth
TTITLE10=The Eternel Forest
EXTD=YEAR: 2001
EXTT0=
EXTT1=
EXTT2=
EXTT3=
EXTT4=
EXTT5=
EXTT6=
EXTT7=
EXTT8=
EXTT9=
EXTT10=
PLAYORDER=
